# xmcd CD database file
#
# Track frame offsets:
#	150
#	16257
#	32340
#	48412
#	66050
#	82050
#	95192
#	106460
#	119505
#	132530
#	144877
#	155535
#	186735
#	201690
#
# Disc length: 2852 seconds
#
# Revision: 2
# Processed by: cddbd v1.4PL0 Copyright (c) Steve Scherf et al.
# Submitted via: CDex 1.50Beta7
#
DISCID=d20b220e
DTITLE=Steve James - American Primitive
DYEAR=1994
DGENRE=Blues
TTITLE0=Greasy Greens
TTITLE1=My Last Good Car
TTITLE2=Talco Girl
TTITLE3=Ragged and Dirty
TTITLE4=Banker's Blues
TTITLE5=Frankie Jean
TTITLE6=Hadacol Boogie
TTITLE7=Midnight Blues
TTITLE8=Boogie Woogie Dance
TTITLE9=All In, Down and Out Blues
TTITLE10=Grain Alcohol
TTITLE11=The Change
TTITLE12=Will and Testament Blues
TTITLE13=Guitar medley (dannybarnes, Bear Creek Hop)
EXTD=YEAR: 1994
EXTT0=
EXTT1=
EXTT2=
EXTT3=
EXTT4=
EXTT5=
EXTT6=
EXTT7=
EXTT8=
EXTT9=
EXTT10=
EXTT11=
EXTT12=
EXTT13=
PLAYORDER=
